<svg aria-hidden="true" style="position: absolute; width: 0; height: 0; overflow: hidden;" version="1.1" xmlns="http://www.w3.org/2000/svg" xmlns:xlink="http://www.w3.org/1999/xlink">
<defs>
<symbol id="icon-chocolate" viewBox="0 0 32 32">
<path fill="#fcf1e0" style="fill: var(--color1, #fcf1e0)" d="M3.944 20.076l10.777-17.424 0.64-0.675 8.235 5.491 0.057 3.315 2.009 3.28-8.88 14.076-12.839-8.063z"></path>
<path fill="none" stroke="#fd9222" style="stroke: var(--color2, #fd9222)" stroke-linejoin="round" stroke-linecap="round" stroke-miterlimit="4" stroke-width="2.6667" d="M21.635 23.88l-14.187-8.864M11.361 8.599l14.185 8.864M10.629 25.864l11.736-19.249M27.176 14.788c-3.040-1.899-4.233-3.383-2.277-6.591l-9.627-6.016-11.735 19.251 14.187 8.864 9.453-15.507z"></path>
</symbol>
<symbol id="icon-instagram" viewBox="0 0 24 24">
<path d="M17 2H7C4.23858 2 2 4.23858 2 7V17C2 19.7614 4.23858 22 7 22H17C19.7614 22 22 19.7614 22 17V7C22 4.23858 19.7614 2 17 2Z"  stroke-width="2" stroke-linecap="round" stroke-linejoin="round"/>
<path d="M16 11.3701C16.1234 12.2023 15.9812 13.0523 15.5937 13.7991C15.2062 14.5459 14.5931 15.1515 13.8416 15.5297C13.0901 15.908 12.2384 16.0397 11.4077 15.906C10.5771 15.7723 9.80971 15.3801 9.21479 14.7852C8.61987 14.1903 8.22768 13.4229 8.09402 12.5923C7.96035 11.7616 8.09202 10.91 8.47028 10.1584C8.84854 9.40691 9.45414 8.7938 10.2009 8.4063C10.9477 8.0188 11.7977 7.87665 12.63 8.00006C13.4789 8.12594 14.2648 8.52152 14.8716 9.12836C15.4785 9.73521 15.8741 10.5211 16 11.3701Z"  stroke-width="2" stroke-linecap="round" stroke-linejoin="round"/>
<path d="M16 11.3701C16.1234 12.2023 15.9812 13.0523 15.5937 13.7991C15.2062 14.5459 14.5931 15.1515 13.8416 15.5297C13.0901 15.908 12.2384 16.0397 11.4077 15.906C10.5771 15.7723 9.80971 15.3801 9.21479 14.7852C8.61987 14.1903 8.22768 13.4229 8.09402 12.5923C7.96035 11.7616 8.09202 10.91 8.47028 10.1584C8.84854 9.40691 9.45414 8.7938 10.2009 8.4063C10.9477 8.0188 11.7977 7.87665 12.63 8.00006C13.4789 8.12594 14.2648 8.52152 14.8716 9.12836C15.4785 9.73521 15.8741 10.5211 16 11.3701Z"  stroke-width="2" stroke-linecap="round" stroke-linejoin="round"/>
<path d="M17.5 6.5H17.51"  stroke-width="2" stroke-linecap="round" stroke-linejoin="round"/>
<path d="M17.5 6.5H17.51"  stroke-width="2" stroke-linecap="round" stroke-linejoin="round"/>
</symbol>
<symbol id="icon-twitter" viewBox="0 0 24 24">
<path d="M23 3.00005C22.0424 3.67552 20.9821 4.19216 19.86 4.53005C19.2577 3.83756 18.4573 3.34674 17.567 3.12397C16.6767 2.90121 15.7395 2.95724 14.8821 3.2845C14.0247 3.61176 13.2884 4.19445 12.773 4.95376C12.2575 5.71308 11.9877 6.61238 12 7.53005V8.53005C10.2426 8.57561 8.50127 8.18586 6.93101 7.39549C5.36074 6.60513 3.51032 4.72313 2.5 3.2845C2.5 3.2845 -1 13 8 17C5.94053 18.398 3.48716 19.099 1 19C10 24 21 19 21 7.50005C20.9991 7.2215 20.9723 6.94364 20.92 6.67005C21.9406 5.66354 22.6608 4.39276 23 3.00005Z"  stroke-width="2" stroke-linecap="round" stroke-linejoin="round"/>
</symbol>
<symbol id="icon-v" viewBox="0 0 32 32">
<path fill="#fd9222" style="fill: var(--color1, #fd9222)" d="M16.947 17.867c-0.124 0.125-0.271 0.224-0.434 0.292s-0.337 0.103-0.513 0.103-0.35-0.035-0.513-0.103c-0.162-0.068-0.31-0.167-0.434-0.292l-6.107-6.12c-0.124-0.125-0.271-0.224-0.434-0.292s-0.337-0.103-0.513-0.103c-0.176 0-0.35 0.035-0.513 0.103s-0.31 0.167-0.434 0.292c-0.248 0.25-0.388 0.588-0.388 0.94s0.139 0.69 0.388 0.94l6.12 6.12c0.75 0.749 1.767 1.17 2.827 1.17s2.077-0.421 2.827-1.17l6.12-6.12c0.246-0.248 0.385-0.584 0.387-0.933 0.001-0.175-0.033-0.349-0.099-0.512s-0.164-0.31-0.288-0.435c-0.124-0.125-0.271-0.224-0.434-0.292s-0.337-0.103-0.513-0.103c-0.176 0-0.35 0.035-0.513 0.103s-0.31 0.167-0.434 0.292l-6.107 6.12z"></path>
</symbol>
<g id="menu-03">
<path d="M4 16H28M4 8H28M4 24H28" stroke="#111111" stroke-width="2.5" stroke-linecap="round" stroke-linejoin="round"/>
</g>

<symbol id="icon-x" viewBox="0 0 32 32">
<path fill="none" stroke="#fff" style="stroke: var(--color1, #fff)" stroke-linejoin="round" stroke-linecap="round" stroke-miterlimit="4" stroke-width="2" d="M22.667 9.333l-13.333 13.333M9.333 9.333l13.333 13.333"></path>
</symbol>


<symbol id="favicon" viewBox="0 0 32 32">
<path fill="#fcf1e0" style="fill: var(--color1, #fcf1e0)" d="M3.944 20.076l10.777-17.424 0.64-0.675 8.235 5.491 0.057 3.315 2.009 3.28-8.88 14.076-12.839-8.063z"></path>
<path fill="none" stroke="#fd9222" style="stroke: var(--color2, #fd9222)" stroke-linejoin="round" stroke-linecap="round" stroke-miterlimit="4" stroke-width="2.6667" d="M21.635 23.88l-14.187-8.864M11.361 8.599l14.185 8.864M10.629 25.864l11.736-19.249M27.176 14.788c-3.040-1.899-4.233-3.383-2.277-6.591l-9.627-6.016-11.735 19.251 14.187 8.864 9.453-15.507z"></path>
</symbol>
</defs>
</svg>
